<mxfile host="app.diagrams.net" agent="Mozilla/5.0 (X11; Ubuntu; Linux x86_64; rv:132.0) Gecko/20100101 Firefox/132.0" version="24.8.6">
  <diagram name="Page-1" id="HRsQPqKu5TOI9KeCF5-i">
    <mxGraphModel dx="1810" dy="711" grid="1" gridSize="10" guides="1" tooltips="1" connect="1" arrows="1" fold="1" page="1" pageScale="1" pageWidth="850" pageHeight="1100" math="0" shadow="0">
      <root>
        <mxCell id="0" />
        <mxCell id="1" parent="0" />
        <mxCell id="vbC64JGcZUOPxJxgwhxo-65" value="" style="rounded=0;whiteSpace=wrap;html=1;fillColor=#dae8fc;strokeColor=#6c8ebf;" vertex="1" parent="1">
          <mxGeometry x="510" y="20" width="630" height="850" as="geometry" />
        </mxCell>
        <mxCell id="vbC64JGcZUOPxJxgwhxo-61" value="" style="rounded=0;whiteSpace=wrap;html=1;fillColor=#d5e8d4;strokeColor=#82b366;" vertex="1" parent="1">
          <mxGeometry x="30" y="20" width="470" height="650" as="geometry" />
        </mxCell>
        <mxCell id="vbC64JGcZUOPxJxgwhxo-5" style="edgeStyle=orthogonalEdgeStyle;rounded=0;orthogonalLoop=1;jettySize=auto;html=1;strokeWidth=2;" edge="1" parent="1" source="vbC64JGcZUOPxJxgwhxo-1" target="vbC64JGcZUOPxJxgwhxo-3">
          <mxGeometry relative="1" as="geometry" />
        </mxCell>
        <mxCell id="vbC64JGcZUOPxJxgwhxo-7" style="edgeStyle=orthogonalEdgeStyle;rounded=0;orthogonalLoop=1;jettySize=auto;html=1;entryX=0;entryY=0.5;entryDx=0;entryDy=0;strokeWidth=2;" edge="1" parent="1" source="vbC64JGcZUOPxJxgwhxo-3" target="vbC64JGcZUOPxJxgwhxo-6">
          <mxGeometry relative="1" as="geometry" />
        </mxCell>
        <mxCell id="vbC64JGcZUOPxJxgwhxo-10" value="" style="group" vertex="1" connectable="0" parent="1">
          <mxGeometry x="51.61" y="60" width="139" height="160" as="geometry" />
        </mxCell>
        <mxCell id="vbC64JGcZUOPxJxgwhxo-1" value="" style="points=[];aspect=fixed;html=1;align=center;shadow=0;dashed=0;fillColor=#FF6A00;strokeColor=none;shape=mxgraph.alibaba_cloud.ccn_cloud_connect_network;" vertex="1" parent="vbC64JGcZUOPxJxgwhxo-10">
          <mxGeometry x="8.39" width="122.22" height="100" as="geometry" />
        </mxCell>
        <mxCell id="vbC64JGcZUOPxJxgwhxo-2" value="Internet" style="text;html=1;align=center;verticalAlign=middle;whiteSpace=wrap;rounded=0;fontStyle=1;fontFamily=Courier New;fontSize=20;" vertex="1" parent="vbC64JGcZUOPxJxgwhxo-10">
          <mxGeometry y="110" width="139" height="50" as="geometry" />
        </mxCell>
        <mxCell id="vbC64JGcZUOPxJxgwhxo-11" value="" style="group" vertex="1" connectable="0" parent="1">
          <mxGeometry x="280.5" y="95" width="139" height="125" as="geometry" />
        </mxCell>
        <mxCell id="vbC64JGcZUOPxJxgwhxo-3" value="" style="fontColor=#0066CC;verticalAlign=top;verticalLabelPosition=bottom;labelPosition=center;align=center;html=1;outlineConnect=0;fillColor=#CCCCCC;strokeColor=#6881B3;gradientColor=none;gradientDirection=north;strokeWidth=2;shape=mxgraph.networks.modem;" vertex="1" parent="vbC64JGcZUOPxJxgwhxo-11">
          <mxGeometry x="19.5" width="100" height="30" as="geometry" />
        </mxCell>
        <mxCell id="vbC64JGcZUOPxJxgwhxo-4" value="Modem" style="text;html=1;align=center;verticalAlign=middle;whiteSpace=wrap;rounded=0;fontStyle=1;fontFamily=Courier New;fontSize=20;" vertex="1" parent="vbC64JGcZUOPxJxgwhxo-11">
          <mxGeometry y="75" width="139" height="50" as="geometry" />
        </mxCell>
        <mxCell id="vbC64JGcZUOPxJxgwhxo-12" value="" style="group" vertex="1" connectable="0" parent="1">
          <mxGeometry x="520.5" y="70" width="139" height="150" as="geometry" />
        </mxCell>
        <mxCell id="vbC64JGcZUOPxJxgwhxo-6" value="" style="image;html=1;image=img/lib/clip_art/networking/Router_128x128.png" vertex="1" parent="vbC64JGcZUOPxJxgwhxo-12">
          <mxGeometry x="29.5" width="80" height="80" as="geometry" />
        </mxCell>
        <mxCell id="vbC64JGcZUOPxJxgwhxo-8" value="Router" style="text;html=1;align=center;verticalAlign=middle;whiteSpace=wrap;rounded=0;fontStyle=1;fontFamily=Courier New;fontSize=20;" vertex="1" parent="vbC64JGcZUOPxJxgwhxo-12">
          <mxGeometry y="100" width="139" height="50" as="geometry" />
        </mxCell>
        <mxCell id="vbC64JGcZUOPxJxgwhxo-15" style="edgeStyle=orthogonalEdgeStyle;rounded=0;orthogonalLoop=1;jettySize=auto;html=1;entryX=0.5;entryY=0;entryDx=0;entryDy=0;exitX=0.5;exitY=1;exitDx=0;exitDy=0;strokeWidth=2;" edge="1" parent="1" source="vbC64JGcZUOPxJxgwhxo-8" target="vbC64JGcZUOPxJxgwhxo-9">
          <mxGeometry relative="1" as="geometry" />
        </mxCell>
        <mxCell id="vbC64JGcZUOPxJxgwhxo-17" value="" style="group" vertex="1" connectable="0" parent="1">
          <mxGeometry x="520.5" y="330" width="139" height="140" as="geometry" />
        </mxCell>
        <mxCell id="vbC64JGcZUOPxJxgwhxo-9" value="" style="image;aspect=fixed;perimeter=ellipsePerimeter;html=1;align=center;shadow=0;dashed=0;spacingTop=3;image=img/lib/active_directory/switch.svg;" vertex="1" parent="vbC64JGcZUOPxJxgwhxo-17">
          <mxGeometry x="29.5" width="80" height="80" as="geometry" />
        </mxCell>
        <mxCell id="vbC64JGcZUOPxJxgwhxo-13" value="Switch" style="text;html=1;align=center;verticalAlign=middle;whiteSpace=wrap;rounded=0;fontStyle=1;fontFamily=Courier New;fontSize=20;" vertex="1" parent="vbC64JGcZUOPxJxgwhxo-17">
          <mxGeometry y="90" width="139" height="50" as="geometry" />
        </mxCell>
        <mxCell id="vbC64JGcZUOPxJxgwhxo-20" value="" style="group" vertex="1" connectable="0" parent="1">
          <mxGeometry x="810" y="130" width="108.5" height="140" as="geometry" />
        </mxCell>
        <mxCell id="vbC64JGcZUOPxJxgwhxo-18" value="" style="shape=image;html=1;verticalAlign=top;verticalLabelPosition=bottom;labelBackgroundColor=#ffffff;imageAspect=0;aspect=fixed;image=https://cdn0.iconfinder.com/data/icons/iphone-7-airpods-icons-solid-style/24/apple-tv-box-128.png" vertex="1" parent="vbC64JGcZUOPxJxgwhxo-20">
          <mxGeometry x="15.25" width="78" height="78" as="geometry" />
        </mxCell>
        <mxCell id="vbC64JGcZUOPxJxgwhxo-19" value="Apple TV" style="text;html=1;align=center;verticalAlign=middle;whiteSpace=wrap;rounded=0;fontStyle=1;fontFamily=Courier New;fontSize=20;" vertex="1" parent="vbC64JGcZUOPxJxgwhxo-20">
          <mxGeometry y="100" width="108.5" height="40" as="geometry" />
        </mxCell>
        <mxCell id="vbC64JGcZUOPxJxgwhxo-23" value="" style="group" vertex="1" connectable="0" parent="1">
          <mxGeometry x="810" y="330" width="108.5" height="140" as="geometry" />
        </mxCell>
        <mxCell id="vbC64JGcZUOPxJxgwhxo-21" value="" style="sketch=0;pointerEvents=1;shadow=0;dashed=0;html=1;strokeColor=none;fillColor=#505050;labelPosition=center;verticalLabelPosition=bottom;verticalAlign=top;outlineConnect=0;align=center;shape=mxgraph.office.devices.tv;" vertex="1" parent="vbC64JGcZUOPxJxgwhxo-23">
          <mxGeometry x="6.75" width="95" height="80" as="geometry" />
        </mxCell>
        <mxCell id="vbC64JGcZUOPxJxgwhxo-22" value="TV" style="text;html=1;align=center;verticalAlign=middle;whiteSpace=wrap;rounded=0;fontStyle=1;fontFamily=Courier New;fontSize=20;" vertex="1" parent="vbC64JGcZUOPxJxgwhxo-23">
          <mxGeometry y="100" width="108.5" height="40" as="geometry" />
        </mxCell>
        <mxCell id="vbC64JGcZUOPxJxgwhxo-27" value="" style="group" vertex="1" connectable="0" parent="1">
          <mxGeometry x="782.87" y="500" width="162.75" height="140" as="geometry" />
        </mxCell>
        <mxCell id="vbC64JGcZUOPxJxgwhxo-25" value="" style="shape=image;html=1;verticalAlign=top;verticalLabelPosition=bottom;labelBackgroundColor=#ffffff;imageAspect=0;aspect=fixed;image=https://cdn1.iconfinder.com/data/icons/ionicons-fill-vol-2/512/logo-playstation-128.png" vertex="1" parent="vbC64JGcZUOPxJxgwhxo-27">
          <mxGeometry x="31.370000000000005" width="100" height="100" as="geometry" />
        </mxCell>
        <mxCell id="vbC64JGcZUOPxJxgwhxo-26" value="PlayStation" style="text;html=1;align=center;verticalAlign=middle;whiteSpace=wrap;rounded=0;fontStyle=1;fontFamily=Courier New;fontSize=20;" vertex="1" parent="vbC64JGcZUOPxJxgwhxo-27">
          <mxGeometry y="100" width="162.75" height="40" as="geometry" />
        </mxCell>
        <mxCell id="vbC64JGcZUOPxJxgwhxo-28" style="edgeStyle=orthogonalEdgeStyle;rounded=0;orthogonalLoop=1;jettySize=auto;html=1;entryX=0;entryY=0.5;entryDx=0;entryDy=0;curved=1;" edge="1" parent="1" source="vbC64JGcZUOPxJxgwhxo-9" target="vbC64JGcZUOPxJxgwhxo-18">
          <mxGeometry relative="1" as="geometry" />
        </mxCell>
        <mxCell id="vbC64JGcZUOPxJxgwhxo-29" style="edgeStyle=orthogonalEdgeStyle;rounded=0;orthogonalLoop=1;jettySize=auto;html=1;curved=1;" edge="1" parent="1" source="vbC64JGcZUOPxJxgwhxo-9" target="vbC64JGcZUOPxJxgwhxo-21">
          <mxGeometry relative="1" as="geometry" />
        </mxCell>
        <mxCell id="vbC64JGcZUOPxJxgwhxo-30" style="edgeStyle=orthogonalEdgeStyle;rounded=0;orthogonalLoop=1;jettySize=auto;html=1;entryX=0;entryY=0.5;entryDx=0;entryDy=0;curved=1;" edge="1" parent="1" source="vbC64JGcZUOPxJxgwhxo-9" target="vbC64JGcZUOPxJxgwhxo-25">
          <mxGeometry relative="1" as="geometry" />
        </mxCell>
        <mxCell id="vbC64JGcZUOPxJxgwhxo-33" style="edgeStyle=orthogonalEdgeStyle;rounded=0;orthogonalLoop=1;jettySize=auto;html=1;entryX=0;entryY=0.5;entryDx=0;entryDy=0;curved=1;" edge="1" parent="1" source="vbC64JGcZUOPxJxgwhxo-9" target="vbC64JGcZUOPxJxgwhxo-31">
          <mxGeometry relative="1" as="geometry" />
        </mxCell>
        <mxCell id="vbC64JGcZUOPxJxgwhxo-34" value="" style="group" vertex="1" connectable="0" parent="1">
          <mxGeometry x="782.87" y="700" width="162.75" height="120" as="geometry" />
        </mxCell>
        <mxCell id="vbC64JGcZUOPxJxgwhxo-31" value="" style="image;aspect=fixed;perimeter=ellipsePerimeter;html=1;align=center;shadow=0;dashed=0;spacingTop=3;image=img/lib/active_directory/wiring_hub.svg;" vertex="1" parent="vbC64JGcZUOPxJxgwhxo-34">
          <mxGeometry x="29.899999999999977" width="102.94" height="70" as="geometry" />
        </mxCell>
        <mxCell id="vbC64JGcZUOPxJxgwhxo-32" value="小米中枢网关" style="text;html=1;align=center;verticalAlign=middle;whiteSpace=wrap;rounded=0;fontStyle=1;fontFamily=Courier New;fontSize=20;" vertex="1" parent="vbC64JGcZUOPxJxgwhxo-34">
          <mxGeometry y="80" width="162.75" height="40" as="geometry" />
        </mxCell>
        <mxCell id="vbC64JGcZUOPxJxgwhxo-35" value="" style="group" vertex="1" connectable="0" parent="1">
          <mxGeometry x="280.5" y="330" width="139" height="140" as="geometry" />
        </mxCell>
        <mxCell id="vbC64JGcZUOPxJxgwhxo-36" value="" style="image;aspect=fixed;perimeter=ellipsePerimeter;html=1;align=center;shadow=0;dashed=0;spacingTop=3;image=img/lib/active_directory/switch.svg;" vertex="1" parent="vbC64JGcZUOPxJxgwhxo-35">
          <mxGeometry x="29.5" width="80" height="80" as="geometry" />
        </mxCell>
        <mxCell id="vbC64JGcZUOPxJxgwhxo-37" value="Switch" style="text;html=1;align=center;verticalAlign=middle;whiteSpace=wrap;rounded=0;fontStyle=1;fontFamily=Courier New;fontSize=20;" vertex="1" parent="vbC64JGcZUOPxJxgwhxo-35">
          <mxGeometry y="90" width="139" height="50" as="geometry" />
        </mxCell>
        <mxCell id="vbC64JGcZUOPxJxgwhxo-38" style="edgeStyle=orthogonalEdgeStyle;rounded=0;orthogonalLoop=1;jettySize=auto;html=1;" edge="1" parent="1" source="vbC64JGcZUOPxJxgwhxo-9" target="vbC64JGcZUOPxJxgwhxo-36">
          <mxGeometry relative="1" as="geometry" />
        </mxCell>
        <mxCell id="vbC64JGcZUOPxJxgwhxo-41" value="" style="group" vertex="1" connectable="0" parent="1">
          <mxGeometry x="84.69999999999999" y="520" width="139" height="120" as="geometry" />
        </mxCell>
        <mxCell id="vbC64JGcZUOPxJxgwhxo-39" value="" style="image;points=[];aspect=fixed;html=1;align=center;shadow=0;dashed=0;image=img/lib/allied_telesis/switch/Switch_24_port_L2_POE.svg;" vertex="1" parent="vbC64JGcZUOPxJxgwhxo-41">
          <mxGeometry x="32.30000000000001" width="74.4" height="51" as="geometry" />
        </mxCell>
        <mxCell id="vbC64JGcZUOPxJxgwhxo-40" value="PoE Switch" style="text;html=1;align=center;verticalAlign=middle;whiteSpace=wrap;rounded=0;fontStyle=1;fontFamily=Courier New;fontSize=20;" vertex="1" parent="vbC64JGcZUOPxJxgwhxo-41">
          <mxGeometry y="70" width="139" height="50" as="geometry" />
        </mxCell>
        <mxCell id="vbC64JGcZUOPxJxgwhxo-42" style="edgeStyle=orthogonalEdgeStyle;rounded=0;orthogonalLoop=1;jettySize=auto;html=1;entryX=0.497;entryY=-0.02;entryDx=0;entryDy=0;entryPerimeter=0;curved=1;" edge="1" parent="1" source="vbC64JGcZUOPxJxgwhxo-36" target="vbC64JGcZUOPxJxgwhxo-39">
          <mxGeometry relative="1" as="geometry" />
        </mxCell>
        <mxCell id="vbC64JGcZUOPxJxgwhxo-45" value="" style="group" vertex="1" connectable="0" parent="1">
          <mxGeometry x="-409.99999999999994" y="800" width="139" height="120" as="geometry" />
        </mxCell>
        <mxCell id="vbC64JGcZUOPxJxgwhxo-43" value="" style="image;points=[];aspect=fixed;html=1;align=center;shadow=0;dashed=0;image=img/lib/allied_telesis/wireless/Access_Point_Indoor.svg;" vertex="1" parent="vbC64JGcZUOPxJxgwhxo-45">
          <mxGeometry x="51.20000000000002" width="36.6" height="54.6" as="geometry" />
        </mxCell>
        <mxCell id="vbC64JGcZUOPxJxgwhxo-44" value="客厅AP" style="text;html=1;align=center;verticalAlign=middle;whiteSpace=wrap;rounded=0;fontStyle=1;fontFamily=Courier New;fontSize=20;" vertex="1" parent="vbC64JGcZUOPxJxgwhxo-45">
          <mxGeometry y="70" width="139" height="50" as="geometry" />
        </mxCell>
        <mxCell id="vbC64JGcZUOPxJxgwhxo-46" value="" style="group" vertex="1" connectable="0" parent="1">
          <mxGeometry x="-243.49999999999994" y="800" width="139" height="120" as="geometry" />
        </mxCell>
        <mxCell id="vbC64JGcZUOPxJxgwhxo-47" value="" style="image;points=[];aspect=fixed;html=1;align=center;shadow=0;dashed=0;image=img/lib/allied_telesis/wireless/Access_Point_Indoor.svg;" vertex="1" parent="vbC64JGcZUOPxJxgwhxo-46">
          <mxGeometry x="51.20000000000002" width="36.6" height="54.6" as="geometry" />
        </mxCell>
        <mxCell id="vbC64JGcZUOPxJxgwhxo-48" value="次卧AP" style="text;html=1;align=center;verticalAlign=middle;whiteSpace=wrap;rounded=0;fontStyle=1;fontFamily=Courier New;fontSize=20;" vertex="1" parent="vbC64JGcZUOPxJxgwhxo-46">
          <mxGeometry y="70" width="139" height="50" as="geometry" />
        </mxCell>
        <mxCell id="vbC64JGcZUOPxJxgwhxo-49" value="" style="group" vertex="1" connectable="0" parent="1">
          <mxGeometry x="-73.49999999999996" y="800" width="139" height="120" as="geometry" />
        </mxCell>
        <mxCell id="vbC64JGcZUOPxJxgwhxo-50" value="" style="image;points=[];aspect=fixed;html=1;align=center;shadow=0;dashed=0;image=img/lib/allied_telesis/wireless/Access_Point_Indoor.svg;" vertex="1" parent="vbC64JGcZUOPxJxgwhxo-49">
          <mxGeometry x="51.20000000000002" width="36.6" height="54.6" as="geometry" />
        </mxCell>
        <mxCell id="vbC64JGcZUOPxJxgwhxo-51" value="主卧AP" style="text;html=1;align=center;verticalAlign=middle;whiteSpace=wrap;rounded=0;fontStyle=1;fontFamily=Courier New;fontSize=20;" vertex="1" parent="vbC64JGcZUOPxJxgwhxo-49">
          <mxGeometry y="70" width="139" height="50" as="geometry" />
        </mxCell>
        <mxCell id="vbC64JGcZUOPxJxgwhxo-53" style="edgeStyle=orthogonalEdgeStyle;rounded=0;orthogonalLoop=1;jettySize=auto;html=1;entryX=0.527;entryY=0;entryDx=0;entryDy=0;entryPerimeter=0;" edge="1" parent="1" source="vbC64JGcZUOPxJxgwhxo-40" target="vbC64JGcZUOPxJxgwhxo-43">
          <mxGeometry relative="1" as="geometry" />
        </mxCell>
        <mxCell id="vbC64JGcZUOPxJxgwhxo-54" style="edgeStyle=orthogonalEdgeStyle;rounded=0;orthogonalLoop=1;jettySize=auto;html=1;entryX=0.404;entryY=-0.018;entryDx=0;entryDy=0;entryPerimeter=0;" edge="1" parent="1" source="vbC64JGcZUOPxJxgwhxo-40" target="vbC64JGcZUOPxJxgwhxo-47">
          <mxGeometry relative="1" as="geometry" />
        </mxCell>
        <mxCell id="vbC64JGcZUOPxJxgwhxo-55" style="edgeStyle=orthogonalEdgeStyle;rounded=0;orthogonalLoop=1;jettySize=auto;html=1;entryX=0.486;entryY=0;entryDx=0;entryDy=0;entryPerimeter=0;" edge="1" parent="1" source="vbC64JGcZUOPxJxgwhxo-40" target="vbC64JGcZUOPxJxgwhxo-50">
          <mxGeometry relative="1" as="geometry" />
        </mxCell>
        <mxCell id="vbC64JGcZUOPxJxgwhxo-58" value="" style="group" vertex="1" connectable="0" parent="1">
          <mxGeometry x="277.75" y="800" width="144.5" height="155" as="geometry" />
        </mxCell>
        <mxCell id="vbC64JGcZUOPxJxgwhxo-56" value="" style="sketch=0;pointerEvents=1;shadow=0;dashed=0;html=1;strokeColor=none;fillColor=#434445;aspect=fixed;labelPosition=center;verticalLabelPosition=bottom;verticalAlign=top;align=center;outlineConnect=0;shape=mxgraph.vvd.ethernet_port;" vertex="1" parent="vbC64JGcZUOPxJxgwhxo-58">
          <mxGeometry x="47.25" width="50" height="50" as="geometry" />
        </mxCell>
        <mxCell id="vbC64JGcZUOPxJxgwhxo-57" value="&lt;div&gt;书房&lt;/div&gt;&lt;div&gt;Ethernet&lt;/div&gt;&lt;div&gt;Port&lt;br&gt;&lt;/div&gt;" style="text;html=1;align=center;verticalAlign=middle;whiteSpace=wrap;rounded=0;fontStyle=1;fontFamily=Courier New;fontSize=20;" vertex="1" parent="vbC64JGcZUOPxJxgwhxo-58">
          <mxGeometry y="65" width="144.5" height="90" as="geometry" />
        </mxCell>
        <mxCell id="vbC64JGcZUOPxJxgwhxo-59" style="edgeStyle=orthogonalEdgeStyle;rounded=0;orthogonalLoop=1;jettySize=auto;html=1;" edge="1" parent="1" source="vbC64JGcZUOPxJxgwhxo-37" target="vbC64JGcZUOPxJxgwhxo-56">
          <mxGeometry relative="1" as="geometry" />
        </mxCell>
        <mxCell id="vbC64JGcZUOPxJxgwhxo-62" value="弱电箱" style="text;html=1;align=center;verticalAlign=middle;whiteSpace=wrap;rounded=0;fontSize=21;fontStyle=1;fontFamily=Helvetica;fillColor=#60a917;strokeColor=#2D7600;fontColor=#ffffff;" vertex="1" parent="1">
          <mxGeometry x="363" y="30" width="125" height="40" as="geometry" />
        </mxCell>
        <mxCell id="vbC64JGcZUOPxJxgwhxo-66" value="电视柜" style="text;html=1;align=center;verticalAlign=middle;whiteSpace=wrap;rounded=0;fontSize=21;fontStyle=1;fontFamily=Helvetica;fillColor=#1ba1e2;strokeColor=#006EAF;fontColor=#ffffff;" vertex="1" parent="1">
          <mxGeometry x="980" y="30" width="125" height="40" as="geometry" />
        </mxCell>
      </root>
    </mxGraphModel>
  </diagram>
</mxfile>
